<svg version="1.1" id="Layer_1" xmlns="http://www.w3.org/2000/svg" xmlns:xlink="http://www.w3.org/1999/xlink" x="0px" y="0px"
	 width="100%" viewBox="0 0 672 608" enable-background="new 0 0 672 608" xml:space="preserve">
<path fill="#000000" opacity="1.000000" stroke="none" 
	d="
M230.600006,1.000000 
	C232.704773,6.861253 232.595413,13.147130 234.889664,18.918896 
	C237.647507,18.925846 238.889343,16.898178 240.464539,15.589864 
	C244.351837,12.361113 248.479477,9.603750 253.368835,8.186389 
	C255.949875,7.438182 258.283356,7.512106 257.831116,11.202955 
	C257.362427,15.028266 261.334686,16.079025 262.655762,18.923302 
	C255.977142,23.423302 249.445129,27.569624 241.015656,26.380720 
	C238.794067,26.067387 236.911545,26.985201 236.205017,29.125011 
	C234.028793,35.715870 232.261490,42.408627 232.052841,50.409286 
	C240.699585,47.589024 248.386719,43.469345 257.251556,43.644657 
	C257.274231,48.536415 255.676773,53.397377 261.409302,56.873074 
	C252.704590,61.546768 244.435349,63.455666 235.514389,61.431889 
	C228.945602,59.941723 228.604340,60.026134 226.201675,66.503502 
	C224.349960,71.495590 222.386749,76.446426 220.461609,81.411140 
	C219.880081,82.910828 218.514954,84.455788 220.137665,85.968399 
	C221.702087,87.426689 223.296555,86.127525 224.763016,85.515869 
	C230.142960,83.271935 235.508881,81.039009 241.211212,79.665817 
	C247.284042,78.203415 247.989487,78.787163 246.720428,85.174904 
	C249.642792,86.876358 250.414581,85.199860 250.698120,82.657944 
	C250.933029,80.551849 250.590210,78.288551 252.445923,76.304695 
	C255.161484,77.179810 257.452881,79.130119 261.035034,77.842369 
	C263.508362,76.953239 263.366821,80.432281 262.812195,82.267166 
	C261.655548,86.093918 261.083618,89.978516 260.600372,94.473038 
	C267.007874,95.211548 272.412537,90.419228 278.844452,91.867233 
	C279.121429,94.796730 278.164551,98.130287 281.845306,100.630936 
	C275.195282,103.982880 268.996277,104.951332 262.768616,104.327980 
	C258.297180,103.880402 255.046402,104.795357 252.368744,108.375954 
	C248.706345,113.273407 243.537872,116.361412 238.522476,119.660759 
	C234.323090,122.423302 234.468399,123.631554 237.951477,127.382294 
	C240.777237,130.425217 244.754028,132.727829 245.640717,137.790680 
	C241.120605,138.323425 237.723465,140.052094 236.131271,144.602020 
	C230.525818,142.433441 229.012665,137.670013 227.622314,132.985016 
	C225.259216,125.022171 225.311325,124.842384 217.035309,127.391571 
	C213.603043,128.448792 209.110184,127.294991 206.683258,132.130646 
	C212.339630,134.974243 218.390991,136.850327 223.547668,140.480148 
	C226.202576,142.348938 228.710800,143.630554 223.729492,145.580551 
	C223.035660,145.852158 221.951126,146.966705 222.051651,147.155075 
	C224.117813,151.026031 218.387695,152.690491 219.567200,156.805969 
	C220.206665,159.037155 217.080994,158.361404 215.404373,157.556198 
	C208.969070,154.465622 203.791931,149.852448 199.366623,144.318283 
	C198.350266,143.047226 197.754395,141.361832 194.950439,140.351730 
	C189.102692,150.447876 185.021271,161.475220 180.227554,172.997391 
	C183.419952,172.591217 185.125488,170.975723 187.065918,169.891525 
	C190.249649,168.112625 193.193069,165.858780 196.937668,165.216568 
	C200.420639,164.619217 203.642609,164.074921 202.288940,169.516174 
	C201.204132,173.876724 206.521713,173.617325 207.585526,176.431549 
	C203.563828,181.087830 198.678970,182.498505 193.377502,180.646561 
	C192.762329,180.431656 192.074692,180.392975 191.415268,180.341751 
	C189.275726,180.175583 187.421967,180.699905 186.316452,182.720795 
	C185.524979,184.167618 185.445251,185.817001 186.650574,186.897644 
	C188.208572,188.294540 190.309326,188.427048 192.290787,187.859741 
	C198.955505,185.951569 201.139923,187.616241 199.674835,194.271774 
	C198.258408,200.706177 199.697327,205.665100 205.556396,209.369293 
	C210.882996,205.229568 214.726013,199.883163 217.032394,193.547485 
	C218.688477,188.998093 215.643738,183.557236 211.109497,182.473907 
	C209.758087,182.151016 208.868500,181.768082 208.989410,180.324326 
	C209.160675,178.279495 210.762344,178.055435 212.299347,178.162720 
	C216.910568,178.484604 219.581451,181.929092 222.293793,184.968979 
	C224.296783,187.213806 225.790375,187.793320 227.843994,185.153366 
	C230.923294,187.926239 231.161591,190.480347 227.748032,193.230515 
	C226.077652,194.576233 224.624207,196.240906 223.275665,197.923965 
	C221.538849,200.091644 220.333237,202.230301 222.824921,204.972488 
	C224.931213,207.290527 226.725830,208.539688 229.487045,206.156372 
	C229.948746,205.757858 231.027603,205.311417 231.253082,205.515366 
	C235.417786,209.282059 241.220718,207.085266 245.747971,209.585464 
	C247.914658,210.782043 249.629822,211.599808 247.523331,214.359070 
	C245.751251,216.680267 244.064270,219.158920 245.161942,222.766388 
	C238.507614,222.229416 233.056580,220.415787 228.063889,217.363861 
	C225.091003,215.546570 222.941193,215.899261 220.940460,218.725449 
	C217.983124,222.902908 214.307541,226.628372 212.505997,232.958145 
	C223.358505,231.311371 233.861542,229.442719 244.602890,234.773544 
	C240.176926,238.554153 239.164108,243.077545 241.251938,247.730179 
	C239.687653,250.449493 235.912216,248.981308 234.861710,252.801117 
	C241.774139,254.525101 248.520325,256.817657 254.424591,262.166534 
	C250.270950,264.526398 247.009232,266.727570 249.973083,271.976898 
	C243.314194,272.378357 239.678482,268.662415 235.701202,265.616455 
	C233.457169,263.897858 232.583511,259.651184 229.943100,259.921875 
	C226.715149,260.252838 223.639374,262.616943 220.633575,264.338928 
	C219.083984,265.226654 217.673553,266.488251 216.818893,268.589417 
	C220.474228,272.872009 222.386154,278.150330 223.805786,283.635620 
	C224.682419,287.022858 224.125824,289.022797 219.906876,287.668396 
	C216.565857,286.595856 213.828583,287.702118 212.063583,291.477844 
	C208.099899,286.430237 207.628799,281.441681 207.711334,276.270844 
	C207.830582,268.800415 207.480469,268.541199 200.186066,270.029205 
	C196.601257,270.760529 193.027023,271.590302 189.409271,272.101105 
	C185.329498,272.677094 184.464462,274.828400 185.693542,278.429321 
	C187.549789,283.867706 187.753876,289.534943 187.580063,295.185303 
	C187.491669,298.058594 187.002747,300.739410 182.748840,298.282227 
	C180.774887,297.141998 178.419052,295.973785 175.369308,297.978333 
	C172.676437,299.748322 171.949524,296.510834 171.977844,294.287689 
	C172.048203,288.764343 173.232224,283.381775 174.355728,278.000336 
	C174.559875,277.022522 174.853104,276.049255 173.414383,273.944916 
	C165.018936,277.495575 158.060425,283.602478 149.403687,289.083862 
	C157.256073,293.764191 165.093155,296.306305 171.437515,302.228271 
	C165.879227,305.265198 162.132507,309.010345 161.818298,315.552887 
	C153.605804,313.150391 149.447189,306.378815 143.534760,300.825073 
	C141.081177,307.889648 140.924057,314.723175 141.433685,321.584076 
	C141.608490,323.937378 143.647980,323.514801 145.347946,323.354095 
	C153.797577,322.555237 162.228531,321.701050 170.753525,321.837524 
	C186.651108,322.091980 201.878357,325.029053 215.999298,332.540497 
	C219.481659,334.392853 221.696930,333.512268 224.263428,330.889435 
	C240.694962,314.097260 257.233948,297.409851 273.793793,280.743866 
	C276.252930,278.268921 278.841614,275.857056 281.663239,273.822144 
	C286.883759,270.057129 292.557892,272.431061 294.442596,278.621124 
	C295.995697,283.721985 294.699921,288.593567 293.547729,293.356659 
	C288.009430,316.251923 278.792023,337.882599 270.160858,359.699066 
	C265.138153,372.394562 259.709656,384.929382 254.493042,397.548584 
	C254.065247,398.583405 253.284866,399.595123 253.937469,401.197418 
	C256.804474,402.299652 259.877289,401.700775 262.927917,401.147034 
	C265.281860,400.719727 267.586182,400.514191 269.641724,402.045868 
	C271.569702,403.482513 273.402924,405.295166 273.057251,407.781586 
	C272.651978,410.696686 269.840088,410.023254 267.809143,410.339752 
	C265.837830,410.646973 263.869446,410.994537 261.887177,411.206390 
	C250.480530,412.425385 250.657150,412.462433 247.550232,423.750061 
	C238.081375,458.150970 221.571518,488.908875 198.942810,516.408203 
	C196.154739,519.796387 193.137711,523.975586 187.700241,521.205078 
	C183.652054,519.142456 182.902695,514.173401 185.793365,507.850647 
	C193.701797,490.552551 203.967117,474.510284 212.776199,457.689453 
	C219.345474,445.145508 225.866455,432.576172 232.370956,419.998535 
	C233.192688,418.409515 234.157318,416.791229 233.741562,414.719971 
	C228.161514,413.472107 222.777191,414.956360 217.366425,415.373535 
	C196.810043,416.958344 176.251160,418.518219 155.707962,420.261261 
	C149.400436,420.796448 146.080002,425.433685 147.418518,431.544922 
	C148.234329,435.269653 149.140366,439.084351 150.757843,442.502899 
	C155.390305,452.293488 158.199371,462.742645 162.162079,472.768463 
	C164.269714,478.100861 163.371002,479.848145 156.964371,482.257721 
	C152.647598,483.881256 151.846466,479.685120 151.029129,477.324829 
	C146.437698,464.065521 140.135223,451.393982 137.659637,437.246399 
	C134.989517,437.531799 133.818161,439.211121 132.492249,440.550171 
	C109.747444,463.520081 86.981804,486.468933 63.274059,508.456177 
	C53.499710,517.521179 43.634907,526.493164 32.852566,534.368835 
	C30.449442,536.124146 27.824715,537.654663 25.123167,538.901062 
	C22.291048,540.207703 19.250761,540.546021 16.777376,537.980103 
	C14.262144,535.370728 13.231956,532.139404 14.661733,528.776306 
	C17.746927,521.519287 23.379509,516.235168 29.365120,511.421265 
	C31.543940,509.668945 32.898041,510.553741 37.540287,515.204773 
	C45.245907,511.975769 130.635651,429.219208 133.207108,422.371857 
	C130.662354,420.547089 127.761597,421.406982 125.059853,421.533295 
	C95.918739,422.895386 66.787910,423.178345 37.731735,420.157898 
	C30.316753,419.387085 22.913677,417.968018 15.883535,415.258209 
	C2.837818,410.229675 -0.627737,399.685852 7.341823,388.274963 
	C15.047577,377.241852 26.122576,369.930786 37.272999,362.915070 
	C54.832237,351.866943 73.730721,343.546570 93.170189,336.418335 
	C100.676750,333.665771 100.749123,333.487762 98.322433,326.075989 
	C97.145828,322.482361 96.181000,318.819336 94.771240,313.992676 
	C89.411446,320.784271 86.058334,328.281586 78.536148,331.914856 
	C75.578186,328.715485 74.887611,323.350311 69.198143,323.840149 
	C68.860283,320.228729 70.789642,317.438507 73.015442,316.445984 
	C78.916557,313.814667 83.232552,308.238220 90.022507,307.416016 
	C93.307159,307.018280 93.978424,305.140472 93.483086,302.134247 
	C92.753647,297.707245 92.221947,293.240295 91.804184,288.771820 
	C91.495064,285.465240 90.520676,284.611969 86.999603,285.760742 
	C79.220039,288.298889 71.202095,288.126038 62.549656,286.325317 
	C67.895256,282.617371 72.141228,278.894775 65.602417,272.757568 
	C74.864937,271.156067 81.594215,275.791321 89.566689,277.338287 
	C90.017349,270.353271 90.200798,264.030151 88.221291,257.902252 
	C86.180466,256.921295 85.265091,258.364990 84.231941,259.353729 
	C79.968651,263.433777 74.894814,266.277130 69.663254,268.846344 
	C67.812164,269.755432 64.504051,270.061005 65.213394,267.442932 
	C66.959244,260.999420 63.121674,259.679688 58.266880,258.744385 
	C59.348732,254.671906 62.467575,253.647858 65.302910,252.467834 
	C68.685104,251.060257 72.232437,250.179688 75.880112,249.634262 
	C79.904678,249.032471 80.554909,247.240707 78.180061,243.877472 
	C74.074905,238.063858 72.483429,237.493958 65.942825,239.973969 
	C61.469070,241.670288 57.050442,242.068146 51.867538,240.341782 
	C55.190109,236.762329 53.513420,233.450256 51.855492,230.039917 
	C55.562164,227.854599 59.162308,228.617401 62.672546,229.307953 
	C66.483902,230.057755 67.272758,228.725327 65.972900,225.310654 
	C65.028519,222.829788 64.335861,220.253998 63.495876,217.732224 
	C62.789204,215.610703 61.732655,213.932968 59.360405,213.129227 
	C54.760231,211.570602 51.820255,207.991623 48.683388,203.799408 
	C52.334167,202.671204 53.976002,199.805283 55.923878,196.918732 
	C59.073067,198.168289 60.637398,200.745789 62.284912,203.159088 
	C64.239098,206.021606 65.924835,206.039536 68.011337,203.222290 
	C70.264633,200.179855 71.124611,196.279587 74.306976,193.755020 
	C75.407364,192.882065 74.583023,190.947250 74.103981,189.494476 
	C73.381416,187.303131 72.382095,185.123383 73.193451,182.506561 
	C75.864670,181.141785 79.171204,182.008026 82.007851,180.053802 
	C84.067581,178.634842 84.750778,181.522675 85.389885,183.159882 
	C86.747444,186.637512 86.543373,190.664429 89.149742,194.478683 
	C91.495857,189.825150 93.439575,185.683655 95.645561,181.686951 
	C97.334312,178.627319 99.391983,176.036316 102.577194,180.446884 
	C102.848946,180.823196 103.370201,181.045242 103.810806,181.269806 
	C109.955742,184.401688 109.907120,184.364182 105.863297,190.229401 
	C103.067490,194.284485 99.449196,197.361069 95.375107,200.062424 
	C88.543442,204.592255 88.112442,211.080017 94.436325,217.687790 
	C98.904358,214.480164 103.481804,211.173019 108.794884,209.215744 
	C112.009537,208.031525 115.205017,205.949600 114.963974,212.502335 
	C114.866020,215.165466 116.559441,218.458435 119.624702,221.212143 
	C113.334724,224.926498 107.450691,227.190094 100.854568,227.293381 
	C91.557388,227.438965 92.914116,227.291870 93.149826,235.607742 
	C93.196884,237.268082 93.297539,238.947998 93.604927,240.575165 
	C94.122711,243.315979 95.345642,244.010162 98.188461,242.667740 
	C104.635567,239.623322 110.902023,236.038315 118.034866,234.685257 
	C118.815758,234.537125 119.649055,234.665268 120.702644,234.665268 
	C121.829491,238.676834 119.791176,243.116074 123.524536,246.755402 
	C116.003960,250.527374 108.673203,251.578400 101.192307,251.543915 
	C95.874107,251.519409 94.452675,252.532684 95.280502,257.837372 
	C95.693794,260.485718 94.382729,263.476959 96.695564,266.233276 
	C100.351280,262.086365 101.304367,256.406860 106.200104,252.250473 
	C107.805397,258.680298 111.262772,261.473175 116.986496,257.880280 
	C117.537994,258.842987 117.912888,259.236298 117.831581,259.393188 
	C114.787292,265.266632 119.090683,267.807251 122.849518,270.652222 
	C126.858170,273.686310 130.320587,277.275970 133.259109,281.356964 
	C134.062515,282.472748 134.883652,283.681976 136.433899,283.216095 
	C137.852692,282.789764 138.441406,281.434937 138.529724,280.069275 
	C138.925598,273.948334 140.444351,267.968140 141.166183,261.887604 
	C141.823898,256.347198 145.247345,250.946091 146.449753,245.137238 
	C146.582504,244.495895 147.256439,243.839203 147.148697,243.294601 
	C145.597122,235.451035 152.486969,230.162827 153.231567,223.069351 
	C154.269791,213.178619 161.117691,205.573837 163.574631,196.253540 
	C164.195755,193.897339 165.565903,191.714539 165.232422,188.719086 
	C160.296768,189.943237 157.141907,194.106033 152.531097,195.426376 
	C148.009155,196.721283 144.104965,200.095718 139.215851,199.811371 
	C138.820038,199.161972 138.434067,198.767868 138.512070,198.622101 
	C141.221802,193.558823 141.328247,189.644394 134.990265,186.973831 
	C132.518661,185.932404 134.446854,183.762741 136.135864,182.896103 
	C140.150818,180.835968 144.323593,179.298035 148.940598,178.992935 
	C153.019302,178.723373 157.261658,179.240601 161.975571,176.923477 
	C157.342407,170.267410 152.886414,163.865845 147.827194,156.597687 
	C141.829453,166.108292 136.981674,175.487045 126.475060,180.324509 
	C125.542114,173.068695 121.819397,168.893387 114.877213,166.897919 
	C123.396973,159.336472 134.076752,156.328781 144.682266,152.289413 
	C142.072586,146.561966 138.819366,141.769775 134.304016,137.169785 
	C131.134277,142.554626 131.220154,148.505371 128.253677,154.112747 
	C123.437904,147.819611 118.684792,149.171005 113.468452,152.683807 
	C110.213203,154.875931 106.593658,154.654037 103.292412,151.936890 
	C99.939583,149.177261 97.090759,145.488831 99.172348,141.620132 
	C102.947510,134.603851 96.641296,130.713867 95.326576,125.356628 
	C94.919510,123.697899 92.708649,124.445511 91.326668,124.061729 
	C88.512550,123.280228 84.981766,124.226006 81.960587,119.444687 
	C93.196915,121.866447 103.190445,122.994713 112.913498,117.412872 
	C110.892326,114.417305 109.048264,111.168594 106.711021,108.325279 
	C101.500710,101.986801 103.538200,94.514824 103.231171,87.447914 
	C103.170189,86.044250 104.091240,83.896370 106.933090,85.192680 
	C109.795845,86.498535 110.582901,83.082092 112.301437,81.930229 
	C121.813683,84.320000 121.510147,93.032692 124.243149,100.012047 
	C125.427933,96.278809 124.272041,92.720139 124.232162,89.151405 
	C124.175430,84.073586 120.819061,83.321938 117.049232,81.962128 
	C108.633492,78.926506 104.639542,71.632767 100.244400,63.700596 
	C106.671410,63.318897 110.659485,60.984089 111.164200,54.032604 
	C119.515617,60.684647 121.036263,70.409882 125.482574,79.538513 
	C133.289383,69.368149 142.108627,62.551205 154.499588,61.246658 
	C155.603775,64.281097 153.188858,67.475792 155.469238,70.158852 
	C155.871994,70.632721 155.730377,71.830101 156.514587,72.231674 
	C162.065277,75.073990 158.953674,76.672569 155.683182,78.277122 
	C147.585739,82.249817 139.062363,83.968193 129.887558,82.777382 
	C128.678085,87.269569 129.579346,91.101097 131.502258,95.250214 
	C135.087906,92.297195 138.286407,89.450241 141.713028,86.911179 
	C144.258804,85.024811 147.111572,83.459465 150.494217,83.952332 
	C158.276398,85.086250 161.292892,91.636589 157.002930,98.282005 
	C154.242050,102.558784 150.460129,105.793633 145.804031,107.786339 
	C145.288773,109.705307 146.300003,111.129059 146.744202,112.866455 
	C151.381226,112.706276 153.644989,107.745735 157.592178,107.215279 
	C158.989059,107.778740 159.282532,108.620781 159.121750,109.436256 
	C158.603104,112.066818 157.474319,114.830879 161.564545,115.650009 
	C165.864197,116.511070 168.060272,114.091583 169.390045,110.547821 
	C170.288864,108.152542 169.256470,105.183357 171.854752,102.664330 
	C178.232010,108.275681 184.168594,114.157326 188.961014,121.135117 
	C192.483536,126.263947 194.125656,126.520477 196.619293,121.066406 
	C200.198257,113.238495 204.528793,105.718521 206.908417,97.339439 
	C207.702774,94.542328 206.548798,93.401703 204.391312,92.279404 
	C199.246521,89.603134 193.802368,87.478607 189.441696,83.385712 
	C187.608597,81.665184 185.868744,79.932091 184.351837,77.942184 
	C182.341339,75.304771 181.667908,73.672997 186.039948,72.477745 
	C190.132065,71.359032 192.159851,67.489326 193.429932,62.038372 
	C200.348190,69.427200 205.822784,76.461082 210.149017,85.222969 
	C214.387177,81.360992 215.418274,76.722198 216.991592,72.589584 
	C218.392395,68.910049 221.150833,65.058205 220.302109,61.278942 
	C219.329788,56.949276 213.843506,57.364765 210.591553,55.237095 
	C205.949066,52.199619 201.636337,48.855869 198.106003,44.570324 
	C196.032883,42.053722 195.659073,39.987373 199.848373,39.679337 
	C203.392426,39.418747 204.596176,37.156052 204.865891,34.029495 
	C204.989670,32.594612 204.518005,30.737833 206.514618,30.339121 
	C208.166595,30.009226 209.155350,31.411030 210.227905,32.476017 
	C214.284470,36.503971 217.222839,41.342823 220.234039,46.129333 
	C221.022186,47.382145 221.563507,48.824787 223.029922,49.469315 
	C225.040192,49.283100 225.309952,47.796436 225.691681,46.318909 
	C226.855270,41.815159 228.131256,37.339924 229.254959,32.826569 
	C230.091660,29.466040 229.769638,26.813736 226.838074,23.952761 
	C222.022858,19.253466 217.664246,13.895905 215.909821,6.502456 
	C220.433975,6.404552 225.624329,8.118524 226.869385,1.338821 
	C228.066666,1.000000 229.133347,1.000000 230.600006,1.000000 
M34.955688,412.516632 
	C48.245914,413.229919 61.538029,414.548767 74.825897,414.507263 
	C92.458618,414.452209 110.085838,413.262207 127.720695,412.736511 
	C131.212311,412.632385 132.002609,411.022614 131.707947,408.039917 
	C130.596970,396.794403 130.805740,385.505646 130.576462,374.229523 
	C130.515488,371.230835 130.093689,367.882294 127.492264,366.065704 
	C119.382324,360.402466 112.553192,353.408020 105.876694,346.221985 
	C104.117744,344.328796 102.164970,344.469330 99.961617,345.281982 
	C74.228294,354.773071 49.481083,366.156311 27.833755,383.348175 
	C22.360708,387.694763 17.160269,392.445404 13.571296,398.592041 
	C10.209497,404.349579 10.910987,406.264557 17.081036,408.605408 
	C22.555870,410.682434 28.304676,411.558044 34.955688,412.516632 
M142.328613,393.938995 
	C142.327438,398.260742 142.296661,402.582794 142.340408,406.904083 
	C142.356735,408.516876 141.937027,410.517426 143.938599,411.225952 
	C145.916412,411.926056 146.848755,410.066589 147.970261,408.926483 
	C153.805969,402.993958 159.278488,396.651245 165.518646,391.183044 
	C173.203186,384.449127 173.786621,375.999969 173.536194,366.793243 
	C173.301758,358.174500 173.775726,349.532196 174.098587,340.906250 
	C174.161438,339.227600 175.083694,337.561554 177.198792,337.659668 
	C179.321442,337.758087 180.263702,339.492004 179.842621,341.157318 
	C178.423172,346.771057 180.150406,352.352783 179.692123,358.007629 
	C179.252548,363.431488 178.440292,369.172241 180.252716,375.852203 
	C192.094360,363.623444 203.270889,352.081543 214.557205,340.426270 
	C211.627411,338.145752 209.166138,337.147644 206.657288,336.261536 
	C186.074158,328.991882 165.100403,330.333801 144.067490,333.533875 
	C141.076706,333.988892 140.461044,335.978882 140.616089,339.045624 
	C141.150345,349.613251 141.918488,360.175903 141.467178,370.790283 
	C141.150848,378.230408 140.536972,385.729004 142.328613,393.938995 
M202.653061,369.151550 
	C189.783066,382.410034 176.913086,395.668488 163.134842,409.862610 
	C165.999634,409.862610 167.316467,409.929749 168.624817,409.852661 
	C191.499893,408.504486 214.309296,406.433868 237.068604,403.762909 
	C240.200012,403.395416 241.263275,401.499084 241.983643,398.974976 
	C243.290543,394.395813 242.836166,389.684937 242.596481,385.075592 
	C241.903549,371.749115 237.878998,359.679535 228.385590,349.806976 
	C225.730377,347.045715 223.727890,346.879517 221.037750,349.837250 
	C215.217163,356.236725 209.127441,362.391388 202.653061,369.151550 
M244.972794,325.464203 
	C239.834198,330.807800 234.695618,336.151367 229.299057,341.763214 
	C240.432968,352.068268 246.781952,364.414551 250.659271,378.421265 
	C263.769165,348.149658 276.647766,318.117584 285.588409,285.875122 
	C271.819458,299.294373 258.649811,312.129547 244.972794,325.464203 
M187.553894,239.572876 
	C183.938995,239.115067 180.168823,239.765137 176.716125,238.199738 
	C174.875061,237.365021 173.037323,235.371887 175.429977,234.213196 
	C182.877151,230.606735 180.442886,226.767014 176.446106,222.473557 
	C176.186295,222.194427 176.317261,221.551529 176.205414,220.508789 
	C184.299530,218.587906 190.862396,223.929947 198.443359,225.455246 
	C196.648392,221.397034 196.648392,221.397034 191.886322,221.134827 
	C185.293655,220.771820 177.643250,215.277405 177.189743,209.841537 
	C176.741684,204.470596 172.960281,201.563660 169.628830,196.834488 
	C163.190353,213.353104 157.663498,229.098907 155.506866,245.854279 
	C157.240036,246.302246 157.770920,245.362167 158.307617,244.545456 
	C161.418961,239.810806 162.494415,239.771042 165.727936,244.320679 
	C169.118301,249.091019 172.084564,254.062103 173.215912,259.920197 
	C173.709778,262.477386 175.191254,263.653381 177.406921,261.870880 
	C184.891617,255.849487 191.538345,249.008774 197.267944,240.805283 
	C194.269623,238.754517 191.250412,239.648453 187.553894,239.572876 
M105.334442,327.149231 
	C106.440491,330.961945 109.140488,331.308685 112.434677,330.450836 
	C117.268135,329.192169 122.061226,327.693390 126.964149,326.812469 
	C131.168854,326.057037 133.074860,323.388184 133.510193,319.758179 
	C134.479446,311.675781 134.974503,303.537659 135.764084,295.432098 
	C136.165619,291.310181 134.138184,289.944061 130.420120,290.429779 
	C122.688278,291.439880 116.069008,288.342651 109.604385,284.796997 
	C108.148338,283.998413 106.144180,283.323700 106.293365,280.996796 
	C115.814575,276.700806 116.867790,275.144379 113.602196,270.238037 
	C111.478539,272.330170 109.377853,274.439209 107.232727,276.501984 
	C105.032608,278.617645 102.261215,279.797272 99.580002,281.139526 
	C98.892998,281.483459 98.276306,282.203705 97.903427,282.899139 
	C96.119125,286.226990 98.751633,300.146729 101.812309,303.197876 
	C109.331589,297.952362 117.240295,293.419189 126.286514,291.945190 
	C128.071777,295.460175 125.062813,297.073608 125.435188,299.307922 
	C126.282738,302.415436 130.777710,302.638489 131.050308,306.901794 
	C122.995903,308.055908 115.669228,312.602295 107.205681,310.379944 
	C102.747406,309.209290 101.153328,310.333099 101.921066,314.882782 
	C102.580864,318.792725 104.011734,322.572601 105.334442,327.149231 
M226.335373,98.764450 
	C222.339127,94.760605 217.045990,94.117134 215.157639,97.934174 
	C211.319168,105.693047 208.133759,113.775009 204.589417,121.930428 
	C205.638626,122.345764 206.296234,122.881699 206.790558,122.759140 
	C211.748871,121.529793 216.709061,120.289658 221.607941,118.846321 
	C224.269394,118.062172 224.917648,115.828285 224.721970,113.281906 
	C224.361572,108.592049 225.118759,104.026466 226.335373,98.764450 
M179.814758,154.227982 
	C179.707870,152.643524 179.600983,151.059052 179.478882,149.248932 
	C172.669205,151.127411 166.432053,153.946091 159.545761,154.366547 
	C155.917389,154.588074 156.158340,156.861984 157.765320,159.231567 
	C160.837616,163.761795 163.976822,168.246765 167.100983,172.741684 
	C169.658661,176.421570 171.516296,176.337646 173.289642,172.102051 
	C175.654175,166.454437 177.663010,160.657913 179.814758,154.227982 
M174.864151,129.297638 
	C171.424622,127.618073 167.859161,126.065704 165.030594,123.458031 
	C162.431854,121.062248 160.167847,122.066673 157.844803,123.571159 
	C155.596146,125.027473 152.624100,125.766663 153.577927,129.816620 
	C154.413101,133.362793 152.986679,136.693115 150.443436,139.368683 
	C146.237900,143.793045 146.403137,145.131195 152.031311,148.684494 
	C157.659012,140.579102 165.100677,134.831314 174.840836,132.311081 
	C176.236420,131.949982 176.547897,130.816376 174.864151,129.297638 
M170.481445,190.305115 
	C170.891052,193.073853 172.286957,195.454773 174.405334,197.037048 
	C177.592422,199.417557 180.549210,201.628006 182.554733,205.395691 
	C183.679321,207.508377 187.670776,207.984238 190.107544,207.054550 
	C192.467041,206.154327 191.512756,203.369812 190.895035,201.273514 
	C189.150482,195.353241 185.583328,190.633362 181.092422,186.559250 
	C175.774658,181.734970 172.968887,182.556412 170.481445,190.305115 
M164.498795,271.105652 
	C165.947479,269.847168 167.680084,268.022766 165.457123,266.691467 
	C160.603348,263.784607 157.247925,259.155914 152.673843,255.826004 
	C146.576477,269.713074 145.311981,276.084381 147.711594,281.862732 
	C153.164566,278.391602 158.552475,274.961853 164.498795,271.105652 
M116.619247,346.885040 
	C121.358734,350.732788 125.384460,355.536987 131.344513,358.833191 
	C132.981400,350.850311 131.639389,343.904175 131.637772,336.348663 
	C124.893959,337.482971 118.880539,338.517853 113.619217,341.643188 
	C113.786140,344.040405 115.003937,345.193604 116.619247,346.885040 
M241.651276,95.071831 
	C239.923782,95.558342 238.196304,96.044846 235.662628,96.758392 
	C240.140060,99.911057 237.401199,103.284637 236.983459,106.546791 
	C236.763535,108.264221 235.499451,110.287354 237.764389,111.396156 
	C239.668442,112.328300 241.261917,111.082436 242.623413,109.802002 
	C244.310898,108.215012 245.924927,106.550125 247.603699,104.953590 
	C250.090714,102.588432 252.403030,100.169807 250.341827,96.382111 
	C248.331955,92.688728 245.212326,94.561760 241.651276,95.071831 
M194.814758,253.342026 
	C193.095154,256.681000 189.624237,258.462830 187.558670,261.445587 
	C186.388672,263.135071 184.997955,266.453735 188.551208,266.061127 
	C193.502991,265.514038 198.770844,264.853668 203.134277,261.760468 
	C204.026367,261.128082 204.623062,260.375763 204.231308,259.266632 
	C203.011703,255.813690 201.737457,252.380051 200.382904,248.660248 
	C198.331696,250.332016 196.805130,251.576187 194.814758,253.342026 
M83.847946,209.132767 
	C83.723877,207.664185 83.918808,206.067108 83.392487,204.760574 
	C82.777451,203.233780 80.843536,201.391205 79.623322,202.894485 
	C76.570740,206.655167 71.872627,208.889130 69.383736,213.295334 
	C76.379677,217.000519 79.812843,216.099564 83.847946,209.132767 
M136.691833,130.675522 
	C136.623764,127.714920 140.212982,126.460083 140.049545,123.299332 
	C136.017914,120.146675 131.263290,119.827415 126.101715,119.929375 
	C128.475815,123.681450 130.661346,127.144211 132.856384,130.600906 
	C133.972610,132.358719 135.163940,133.645386 136.691833,130.675522 
M115.061295,134.863693 
	C116.051964,130.112946 117.305466,125.380341 116.337540,120.279274 
	C108.462135,125.707382 106.892418,129.663742 110.193382,135.507431 
	C111.691856,135.871155 113.180283,134.108383 115.061295,134.863693 
M225.850952,254.486588 
	C226.594971,248.377853 225.041016,246.871399 218.033066,246.944183 
	C216.765457,248.674042 217.272369,250.753922 217.016541,252.675461 
	C216.809570,254.229996 215.576935,256.115631 217.195297,257.322845 
	C219.095306,258.740173 220.954147,257.224915 222.706375,256.401123 
	C223.597885,255.981995 224.408493,255.390778 225.850952,254.486588 
M181.945663,133.259781 
	C180.366287,135.408463 182.047302,137.210129 182.491089,139.183609 
	C182.986053,141.384644 184.351471,142.204559 185.973083,140.970413 
	C188.138687,139.322266 189.725159,136.383041 188.750504,134.039932 
	C187.766678,131.674835 184.889008,130.703842 181.945663,133.259781 
M85.571190,232.124817 
	C82.392258,229.961243 80.216568,232.512955 80.145897,234.584259 
	C80.044243,237.563553 82.210434,239.964783 86.005035,240.069443 
	C87.041748,237.482849 86.980354,235.128723 85.571190,232.124817 
M136.261826,101.584229 
	C133.610733,103.347855 132.122192,105.641457 132.618439,109.199318 
	C136.885239,108.990471 138.930679,105.749886 142.542694,103.819260 
	C139.837418,103.517136 139.392548,100.198318 136.261826,101.584229 
M204.625153,225.495346 
	C207.949280,227.616470 209.350693,226.494019 210.348587,220.625000 
	C208.106216,219.905243 205.952560,220.261017 203.510880,220.983749 
	C203.829407,222.406418 204.108093,223.651154 204.625153,225.495346 
M133.991562,380.608765 
	C133.991562,384.005157 133.991562,387.401581 133.991562,390.797974 
	C134.200043,390.790955 134.408539,390.783936 134.617020,390.776886 
	C134.617020,384.971741 134.617020,379.166595 134.617020,373.361420 
	C134.408478,373.360962 134.199951,373.360474 133.991409,373.360016 
	C133.991409,375.469818 133.991409,377.579651 133.991562,380.608765 
M144.980286,452.612244 
	C145.183426,452.873047 145.339096,453.219269 145.605026,453.367065 
	C145.812057,453.482117 146.156403,453.350128 146.828979,453.297394 
	C144.503784,450.113464 144.019638,446.330597 143.260239,442.656067 
	C142.820694,442.813049 142.381149,442.970001 141.941605,443.126984 
	C142.862946,446.105804 143.784302,449.084656 144.980286,452.612244 
z"/>
<path fill="#000000" opacity="1.000000" stroke="none" 
	d="
M196.460632,609.000000 
	C190.448853,593.945496 191.024933,578.658508 194.219009,563.257751 
	C201.446976,528.406860 223.275864,507.020599 256.247864,495.862152 
	C271.152130,490.818237 286.499268,488.124756 302.144989,486.787567 
	C316.279968,485.579468 330.384155,484.087524 342.564087,475.666656 
	C343.515015,475.009216 344.589020,474.496002 345.663666,474.057404 
	C349.285400,472.579010 353.305542,469.645416 356.812469,472.678467 
	C360.595612,475.950439 361.750275,480.945404 360.591217,486.006927 
	C357.997559,497.333008 350.165009,504.246765 340.369171,509.348053 
	C334.859283,512.217407 328.831238,513.652161 322.819794,514.981262 
	C316.199890,516.444763 310.353882,519.491211 304.586639,522.900818 
	C301.508789,524.720459 300.622131,527.046143 301.176880,530.393066 
	C302.302521,537.183960 306.301636,541.867554 312.033417,545.151611 
	C322.584045,551.196594 334.343536,553.721619 346.015717,556.452209 
	C363.315063,560.499146 380.849030,561.768311 398.557495,560.728027 
	C413.110840,559.873169 427.019073,555.847046 440.992615,552.072083 
	C446.718231,550.525391 452.527496,548.612427 458.631073,550.571472 
	C466.362823,553.053101 467.861847,558.738586 462.210815,564.457764 
	C459.111084,567.594849 455.275726,569.606018 451.307678,571.382874 
	C428.868195,581.431519 405.799744,589.385437 381.169434,591.886658 
	C362.128387,593.820312 343.349884,592.012329 324.662476,587.991577 
	C303.155365,583.364197 281.506714,579.417542 259.336517,582.256104 
	C239.206161,584.833435 221.488449,592.291382 208.103058,608.679199 
	C204.307098,609.000000 200.614182,609.000000 196.460632,609.000000 
z"/>
<path fill="#000000" opacity="1.000000" stroke="none" 
	d="
M673.000000,319.531342 
	C672.594543,320.523041 672.042297,320.986969 671.804504,321.577515 
	C660.576416,349.466736 638.960876,365.097168 611.005371,373.416992 
	C592.374390,378.961700 573.141174,380.877014 553.983704,383.236420 
	C545.940796,384.226990 538.366760,386.277710 531.429199,390.552490 
	C528.882141,392.121887 526.282104,393.676514 523.538086,394.841797 
	C515.581970,398.220642 510.424438,395.023834 509.747498,386.367676 
	C509.227936,379.723877 512.524048,374.551331 516.500183,369.689087 
	C524.671265,359.696869 536.009216,355.638763 548.017456,352.759735 
	C553.688049,351.400208 559.307983,349.827484 564.177307,346.380829 
	C570.841980,341.663330 571.709045,337.639557 567.091736,330.870239 
	C562.265381,323.794373 554.896484,320.156982 547.218689,317.225159 
	C531.053101,311.052185 514.066345,308.965698 496.974762,307.264221 
	C474.291229,305.006073 452.694122,310.465912 431.087219,315.977936 
	C425.173828,317.486420 419.210632,317.750732 413.242706,317.189545 
	C409.707123,316.857147 405.439423,316.390411 404.600647,311.947266 
	C403.722260,307.294312 405.332184,303.512085 410.298187,301.643677 
	C434.541199,292.522552 457.987915,281.130188 484.020203,277.271393 
	C506.436035,273.948700 528.420654,275.923920 550.329956,280.948059 
	C565.383179,284.400024 580.399719,287.957855 596.057129,287.769287 
	C620.375061,287.476471 641.867859,280.441620 659.319275,262.863495 
	C661.896729,260.267303 664.731628,257.926453 667.449829,255.470215 
	C668.852356,254.202896 670.334106,253.163696 672.690674,253.915131 
	C673.000000,275.687561 673.000000,297.375122 673.000000,319.531342 
z"/>
<path fill="#000000" opacity="1.000000" stroke="none" 
	d="
M673.000000,418.533142 
	C667.648438,425.515564 665.264038,432.745148 666.840820,441.284424 
	C667.843140,446.712555 667.947205,452.257660 665.108093,457.377167 
	C661.541565,463.808563 653.834229,466.572876 647.129700,463.818512 
	C640.073914,460.919861 636.761719,454.470428 638.566833,447.335754 
	C639.257324,444.606598 639.963013,441.651489 643.617737,442.818207 
	C646.789307,443.830719 649.052917,446.168793 648.557556,449.945435 
	C648.368896,451.383575 647.698730,452.758545 647.241211,454.183380 
	C656.163635,455.894470 659.052124,449.715820 657.395935,432.261627 
	C650.628235,438.049622 642.689209,437.922363 634.721130,437.418060 
	C631.725830,437.228546 631.210999,439.374451 630.378540,441.343872 
	C627.177551,448.916748 623.508362,456.181091 616.901978,461.462799 
	C612.232910,465.195618 607.167847,467.540710 601.247681,464.581329 
	C595.249146,461.582733 592.045776,456.618683 591.677612,449.843933 
	C591.600647,448.428284 592.182007,446.880859 590.951904,445.297699 
	C587.083984,448.193298 583.224121,451.056519 578.736877,452.851349 
	C574.282227,454.633209 570.019592,454.873260 566.120117,451.450012 
	C562.062317,447.887817 560.758423,443.347595 562.122437,438.333405 
	C563.383911,433.695892 565.333313,429.245575 567.195679,424.118500 
	C560.380310,427.855286 554.978210,432.871887 549.408875,437.588501 
	C542.927063,443.077972 536.791870,448.975220 530.358337,454.523926 
	C528.373474,456.235840 527.048706,459.649109 523.468506,458.397034 
	C519.865601,457.136963 518.623962,454.109680 518.400757,449.964691 
	C514.406311,452.324554 511.145538,455.183289 507.151428,456.819550 
	C498.308868,460.441925 493.289825,458.331238 489.991486,449.016022 
	C486.351166,451.742828 482.889923,454.524689 479.233551,457.020691 
	C475.632812,459.478729 471.612457,460.818726 467.524200,458.337158 
	C463.340057,455.797363 461.581909,451.740173 461.644958,446.892822 
	C461.865112,429.959564 481.071655,411.712891 497.762817,412.736237 
	C504.203705,413.131134 509.249268,415.952911 511.770325,422.281525 
	C512.394653,423.848785 513.163574,425.541229 511.307495,426.742523 
	C509.805298,427.714813 508.347717,426.874146 507.196899,425.904541 
	C504.845978,423.923706 503.259216,420.916809 499.396393,421.265015 
	C494.579285,421.699249 490.355499,423.494110 486.557861,426.317841 
	C478.607330,432.229431 473.187225,440.690979 471.984863,449.219513 
	C480.028748,444.513916 485.624329,437.645508 491.769623,431.411346 
	C492.937012,430.227112 493.963043,428.903046 495.047302,427.637482 
	C496.870483,425.509552 498.838257,423.532440 501.818542,425.556976 
	C504.572449,427.427795 506.507172,429.742889 505.278168,433.522278 
	C504.080292,437.205994 502.377930,440.931488 504.373383,445.367523 
	C509.778778,443.744598 513.796509,440.457489 517.907593,437.484955 
	C525.576965,431.939545 533.536804,426.629700 537.297485,417.247528 
	C538.211792,414.966553 539.684814,412.249329 542.864441,414.124390 
	C545.815857,415.864899 548.260376,418.283478 546.673523,422.299805 
	C546.135010,423.662994 545.397278,424.947418 544.207275,427.377075 
	C551.351379,422.401337 557.034119,417.303192 563.846924,413.934143 
	C566.533936,412.605347 569.182007,411.175934 572.396851,412.108551 
	C578.504639,413.880341 581.091248,418.984039 578.575989,425.556122 
	C576.676758,430.518402 574.094116,435.218597 571.828064,440.041260 
	C571.134277,441.517792 569.951172,442.815186 570.086548,444.730438 
	C572.201721,446.456177 574.272705,445.161621 576.033752,444.238312 
	C585.172546,439.446747 594.356018,434.793396 599.414368,424.867462 
	C601.819214,420.148346 604.986633,415.634827 610.953369,415.202209 
	C612.129456,413.388794 611.299316,411.703979 611.396545,410.081879 
	C611.810913,403.171204 616.667664,400.148895 622.806519,403.415924 
	C630.023315,407.256653 632.443726,414.192963 633.119934,421.747742 
	C633.833069,429.714905 635.308533,430.969604 643.343323,429.310791 
	C648.573486,428.231018 652.720764,425.823181 656.206055,421.488770 
	C661.298645,415.155548 665.795593,408.228729 672.667969,403.073547 
	C673.000000,408.022095 673.000000,413.044189 673.000000,418.533142 
M600.414368,452.526184 
	C600.875916,458.065002 604.336121,456.066956 606.767212,454.675781 
	C612.446167,451.426056 615.891907,446.067719 618.886536,440.429962 
	C623.112366,432.474182 622.620422,430.348999 614.872864,424.281219 
	C606.371582,431.474579 602.427429,441.055237 600.414368,452.526184 
M621.218567,418.005402 
	C621.541626,419.576294 621.800415,421.181396 623.703430,422.425171 
	C623.466370,419.049927 624.737610,415.839813 622.272156,412.974243 
	C620.606750,414.328491 621.226929,415.880646 621.218567,418.005402 
z"/>
<path fill="#000000" opacity="1.000000" stroke="none" 
	d="
M660.458069,609.000000 
	C661.249634,605.001404 662.138184,600.827209 665.504517,597.108643 
	C668.994568,600.423340 669.252991,604.679016 670.857117,608.665161 
	C667.638733,609.000000 664.277405,609.000000 660.458069,609.000000 
z"/>
<path fill="#000000" opacity="1.000000" stroke="none" 
	d="
M453.291626,407.291504 
	C454.582397,405.958099 455.639221,404.894714 456.687805,403.823273 
	C459.260956,401.194031 461.679596,401.729950 463.996979,404.182068 
	C466.302521,406.621765 467.383942,409.128632 464.642395,412.032501 
	C462.360992,414.448975 460.014740,416.834351 457.996216,419.463104 
	C452.491882,426.631287 451.033508,434.669891 452.793243,443.533112 
	C454.088898,450.058960 452.895020,456.169281 447.798218,460.961365 
	C440.057098,468.239716 427.687134,464.998718 424.406006,454.873993 
	C424.009247,453.649658 423.656006,452.411285 423.183289,450.851898 
	C418.718018,453.033630 414.652557,455.270538 410.397186,457.054474 
	C394.704559,463.633026 382.290283,463.746246 374.327301,443.227325 
	C371.952484,444.048187 370.235809,445.827118 368.326385,447.293121 
	C359.719971,453.901093 350.992981,460.349060 340.611237,463.958282 
	C335.763794,465.643494 330.790405,466.437958 326.569366,462.307556 
	C322.352539,458.181274 323.952362,453.446808 325.284424,448.744110 
	C326.674164,443.837891 329.460297,439.387878 330.334320,433.914978 
	C327.215179,434.211029 324.421326,434.410522 321.645233,434.753662 
	C316.209351,435.425507 311.179596,434.497620 307.635498,430.076324 
	C304.524414,426.195160 301.540924,426.467194 297.773529,428.913879 
	C289.038574,434.586792 280.788727,440.622833 276.255066,450.517456 
	C274.807251,453.677277 272.746521,456.563873 270.883179,459.523224 
	C269.515076,461.696136 268.378754,464.929016 264.918701,462.594055 
	C261.926392,460.574860 259.286530,457.974823 261.715149,453.879150 
	C264.518585,449.151398 267.490936,444.523987 270.379883,439.846741 
	C277.383392,428.508118 284.410065,417.183624 291.358673,405.811401 
	C292.900604,403.287842 294.601349,401.191406 297.670227,403.278778 
	C300.549072,405.236938 302.843750,407.718445 300.558960,411.628510 
	C298.988647,414.315887 297.451569,417.022705 295.409821,420.572388 
	C299.412415,419.689697 302.419952,418.939362 305.461823,418.373566 
	C311.970795,417.162933 315.626953,419.017090 318.002808,425.177246 
	C319.021484,427.818481 320.467010,428.823639 323.183472,428.710602 
	C329.716064,428.438782 335.658997,427.656891 338.572479,420.306885 
	C340.273071,416.016602 343.056488,412.140869 345.479889,408.155975 
	C347.848175,404.261749 346.914246,401.225006 343.408447,398.668427 
	C338.964935,395.427979 333.755188,394.315369 328.525696,393.205200 
	C317.181915,390.797119 305.670410,391.063263 294.182800,391.029785 
	C291.046539,391.020660 288.184235,390.646454 286.146423,387.957886 
	C285.024689,386.477997 283.807861,384.890259 284.819305,382.969391 
	C285.785431,381.134674 287.757416,381.729889 289.338379,381.725891 
	C305.835724,381.684082 322.333191,381.700195 338.830627,381.698944 
	C344.663055,381.698486 350.511749,381.427612 356.322357,381.782684 
	C360.431061,382.033783 362.717987,380.275391 364.791809,377.026062 
	C375.102295,360.871460 386.001648,345.110840 397.161255,329.532562 
	C398.878967,327.134766 400.123322,323.257538 404.399170,326.071899 
	C408.215820,328.584106 408.630219,331.981354 405.672241,336.268280 
	C396.873596,349.020050 388.057892,361.760040 379.274750,374.522491 
	C377.962677,376.429016 376.521637,378.287933 375.923218,380.678833 
	C377.589355,382.384918 379.706543,381.642639 381.580414,381.651337 
	C397.077667,381.723328 412.575867,381.761169 428.072662,381.649933 
	C431.761871,381.623474 434.607178,382.706085 436.421783,385.959442 
	C437.924835,388.654266 437.249451,390.486725 434.046387,390.901093 
	C432.402771,391.113739 430.720947,391.074524 429.056396,391.074982 
	C410.559296,391.080170 392.062164,391.090637 373.565186,391.045044 
	C370.629517,391.037811 368.107300,391.259308 366.263885,394.169281 
	C356.459229,409.647003 346.394012,424.970764 338.113739,441.346344 
	C336.311005,444.911499 332.719421,449.637878 336.199280,452.683746 
	C339.106659,455.228546 343.620667,451.558502 347.029144,449.678986 
	C356.976227,444.193909 365.955170,437.251678 375.100830,430.567474 
	C377.037018,429.152405 378.263306,427.202972 379.591278,425.274811 
	C386.906128,414.653809 396.184448,406.253357 407.767059,400.439240 
	C412.032349,398.298218 416.037659,397.900421 419.748901,401.413727 
	C423.579956,405.040405 424.268066,409.411560 422.472260,414.224854 
	C418.807739,424.046936 411.284271,429.705750 401.751465,433.050201 
	C397.675018,434.480347 393.554230,435.868896 389.216187,436.314911 
	C384.006592,436.850555 383.517914,440.886261 383.260620,444.715546 
	C382.978302,448.916962 385.866943,450.530609 389.584534,450.909363 
	C390.897980,451.043213 392.268433,451.035522 393.568176,450.821381 
	C407.168152,448.580688 419.680939,443.325714 430.127472,434.549133 
	C436.534607,429.166229 441.297455,421.820221 446.764008,415.326569 
	C448.909424,412.778046 450.960114,410.149841 453.291626,407.291504 
M433.362915,443.498169 
	C433.239532,447.113525 435.052216,450.747284 432.705475,454.280518 
	C437.326843,454.833008 439.501099,454.025696 441.622131,450.736908 
	C444.736298,445.908203 444.747162,440.810822 442.485291,435.083344 
	C439.387970,437.910889 436.595825,440.459869 433.362915,443.498169 
M336.179779,390.323578 
	C338.569763,393.152496 342.225677,393.890717 345.215424,395.736237 
	C351.382690,399.543243 352.745605,398.827301 354.405518,391.305267 
	C348.528625,390.221313 342.609436,390.116333 336.179779,390.323578 
M404.330627,419.894073 
	C406.798096,417.466003 410.155029,415.728577 411.230286,410.696655 
	C405.186310,414.612610 400.315765,418.188354 395.718933,423.335571 
	C399.244476,422.942596 401.537384,421.730164 404.330627,419.894073 
z"/>
<path fill="#000000" opacity="1.000000" stroke="none" 
	d="
M436.877441,338.246216 
	C433.106049,338.152924 429.357300,338.464050 428.047882,334.471283 
	C426.627869,330.141296 428.769989,326.641418 431.915070,323.860199 
	C438.722626,317.840118 447.089447,315.052032 455.686523,312.863678 
	C464.317169,310.666748 472.982666,309.688263 481.779968,312.164337 
	C483.112823,312.539490 484.735107,312.096283 486.182739,311.818878 
	C494.404358,310.243317 502.407623,310.164734 509.757568,314.987854 
	C511.593445,316.192596 513.622620,315.740204 515.589783,315.691589 
	C520.482483,315.570618 525.214783,316.166382 529.633728,318.451477 
	C531.662537,319.500641 533.303223,320.986237 531.189148,323.021667 
	C522.389160,331.494324 513.354736,339.779755 500.159180,340.266174 
	C492.801880,340.537323 491.625702,338.631470 494.149384,331.528503 
	C494.417267,330.774597 494.740112,330.040222 495.479706,328.191040 
	C491.095856,330.807861 487.635132,332.907074 484.141785,334.950500 
	C479.820984,337.477936 475.355621,339.694275 470.453430,340.879486 
	C466.819000,341.758118 464.173523,340.672821 461.888855,337.500031 
	C459.475647,334.148773 460.312683,331.519226 462.853821,329.182312 
	C467.611298,324.807190 472.581146,320.663025 478.325195,315.673584 
	C471.414825,318.406403 466.791138,322.735809 461.643555,326.206665 
	C454.073181,331.311096 446.816101,337.038544 436.877441,338.246216 
z"/>
<path fill="#000000" opacity="1.000000" stroke="none" 
	d="
M377.688690,532.166382 
	C378.121979,535.420837 376.270203,537.523987 374.770569,540.445435 
	C377.410339,539.714478 378.861389,538.171204 380.425812,536.887146 
	C385.933502,532.366577 392.090271,529.226257 399.137054,527.960754 
	C401.818634,527.479126 404.462189,527.834290 407.008759,528.725281 
	C410.900360,530.086731 411.472534,533.839172 409.343628,535.887329 
	C398.968170,545.869324 389.919952,558.428406 372.864258,557.174988 
	C369.451874,556.924255 366.001160,556.365784 363.362915,554.564392 
	C360.176880,552.388916 357.030487,552.160828 353.494232,552.228577 
	C347.763336,552.338257 342.354248,551.261658 337.186249,546.404541 
	C348.422638,539.136658 356.570953,527.836121 371.178467,527.653992 
	C374.230743,527.615967 376.862823,528.246704 377.688690,532.166382 
z"/>
<path fill="#000000" opacity="1.000000" stroke="none" 
	d="
M436.734375,529.299316 
	C443.738983,529.663147 445.013428,536.564087 441.152954,541.249390 
	C435.100311,548.595154 427.282104,553.202515 417.970856,554.683838 
	C410.462860,555.878296 402.926819,557.331543 395.244476,557.068848 
	C393.970245,557.025330 392.539795,557.416870 391.584625,555.898071 
	C391.709320,555.515015 391.712982,554.874512 392.018860,554.654724 
	C404.229431,545.884033 415.299774,535.298767 430.023438,530.511230 
	C432.049744,529.852356 434.229858,529.666443 436.734375,529.299316 
z"/>
<path fill="#000000" opacity="1.000000" stroke="none" 
	d="
M482.669373,468.386475 
	C470.649963,470.530853 469.358765,491.662689 477.407715,498.665619 
	C483.557587,504.016266 492.828430,502.077362 496.184113,494.507141 
	C497.541748,491.444427 498.809692,490.269989 502.103333,491.619995 
	C506.122040,493.267181 503.845276,495.731323 502.959412,497.726715 
	C499.971069,504.457947 494.567322,507.824158 487.272369,508.197235 
	C479.189209,508.610596 472.354797,506.248077 468.366852,498.717041 
	C464.004089,490.478149 463.382111,481.843018 467.118652,473.202362 
	C470.525024,465.325165 477.289642,461.638824 485.333832,461.231018 
	C492.490387,460.868225 498.694305,463.825439 502.307129,470.596680 
	C503.201630,472.273163 504.821289,474.412659 502.319977,475.802826 
	C500.143280,477.012604 497.490051,477.614594 496.005035,474.385956 
	C493.402008,468.726624 488.623596,467.696167 482.669373,468.386475 
z"/>
<path fill="#000000" opacity="1.000000" stroke="none" 
	d="
M601.275757,507.213379 
	C593.350952,503.379181 591.530151,496.774109 591.910461,489.137146 
	C592.243103,482.457794 595.074951,477.335571 601.465149,474.588562 
	C611.406982,470.314789 622.526062,477.995026 622.295532,488.847565 
	C622.226501,492.096680 620.860474,493.294525 617.749023,493.237793 
	C612.759033,493.146759 607.765930,493.240570 602.774109,493.241730 
	C599.281616,493.242554 598.761536,494.823853 600.302612,497.672852 
	C602.901733,502.477539 609.072266,503.449738 612.952026,499.588562 
	C613.654175,498.889862 614.168640,498.006622 614.829651,497.261749 
	C616.648560,495.212341 618.791748,495.622833 620.663635,496.935089 
	C622.583008,498.280640 621.216064,499.941376 620.474304,501.340851 
	C617.272888,507.381012 610.525146,509.509064 601.275757,507.213379 
M600.240295,486.266541 
	C604.922729,487.185883 609.560181,487.188385 614.274475,486.215332 
	C613.657837,481.561768 610.925964,479.634155 607.353638,479.626556 
	C603.607605,479.618591 600.694092,481.563171 600.240295,486.266541 
z"/>
<path fill="#000000" opacity="1.000000" stroke="none" 
	d="
M379.740051,492.731384 
	C379.654816,486.655182 380.404480,481.145721 384.772736,477.144318 
	C389.410004,472.896454 394.824615,472.178680 400.637787,475.545135 
	C402.434937,472.314209 401.495209,469.125336 401.632935,466.101135 
	C401.739746,463.756775 402.351379,462.235931 404.988037,462.173889 
	C407.718262,462.109711 408.323273,463.723785 408.318298,466.036407 
	C408.291443,478.535980 408.293976,491.035645 408.308777,503.535278 
	C408.311523,505.853180 407.395386,508.151001 404.990936,507.112335 
	C401.976227,505.810059 399.792297,506.949615 397.189789,507.753754 
	C391.905273,509.386566 386.072205,506.930511 382.885712,502.056885 
	C381.115479,499.349365 380.319000,496.302643 379.740051,492.731384 
M392.224274,501.577972 
	C395.183716,502.363739 397.782410,501.893036 399.853821,499.452240 
	C403.491302,495.166077 403.276337,485.982574 399.427124,481.945587 
	C396.110352,478.467041 391.030518,478.937317 388.407196,482.965759 
	C384.801788,488.502289 386.245117,497.027100 392.224274,501.577972 
z"/>
<path fill="#000000" opacity="1.000000" stroke="none" 
	d="
M444.145233,489.214386 
	C444.252747,492.624786 442.366211,493.188904 439.921082,493.182343 
	C434.935730,493.168945 429.946930,493.104706 424.965912,493.262787 
	C421.191772,493.382507 420.342316,495.194977 422.351135,498.351471 
	C424.935211,502.411926 430.962036,503.224274 434.522675,499.936218 
	C435.368225,499.155396 436.003937,498.150635 436.761749,497.270905 
	C438.402740,495.365997 440.362640,495.660461 442.133759,496.843872 
	C444.018524,498.103180 443.082275,499.823975 442.256012,501.252014 
	C439.160400,506.602295 434.249390,508.391785 428.344360,508.196381 
	C422.012177,507.986786 417.609253,504.846497 415.230011,499.129669 
	C412.816376,493.330261 413.149780,487.394958 415.684235,481.694427 
	C418.051544,476.369934 424.253784,472.848114 429.864471,473.336243 
	C436.058136,473.875092 441.284851,478.031494 443.054260,483.925598 
	C443.529938,485.510010 443.773621,487.164093 444.145233,489.214386 
M433.440735,480.962860 
	C427.243073,478.221191 423.425201,479.845093 421.717377,486.453278 
	C426.628876,487.020691 431.381775,487.191833 436.097351,486.348877 
	C436.257263,483.858521 435.205383,482.594025 433.440735,480.962860 
z"/>
<path fill="#000000" opacity="1.000000" stroke="none" 
	d="
M522.429321,487.333435 
	C525.068542,486.475983 528.104187,487.603333 529.388000,484.633270 
	C529.896484,483.456909 529.350769,482.266388 528.401123,481.493469 
	C525.894653,479.453430 523.059814,478.948334 519.960999,479.957397 
	C518.650635,480.384033 517.408508,481.010864 516.750244,482.200623 
	C515.121399,485.144257 512.522644,486.848877 509.955078,484.444336 
	C507.427277,482.077026 510.143402,479.499512 511.787689,477.600830 
	C515.371155,473.462799 523.864563,472.151703 530.015442,474.408630 
	C535.904724,476.569519 536.315002,481.410828 536.381836,486.650024 
	C536.455994,492.462006 535.731934,498.313141 537.064636,504.086700 
	C537.367493,505.398895 537.455444,506.845795 535.749695,507.400360 
	C533.114441,508.257141 531.376038,506.717651 529.792603,504.708313 
	C526.092346,507.265320 522.219910,508.527008 517.885010,508.155640 
	C512.277771,507.675293 508.343262,504.323792 507.816925,499.483124 
	C507.308167,494.804535 510.137543,490.608582 515.210815,488.919373 
	C517.404663,488.188904 519.747986,487.907318 522.429321,487.333435 
M522.875061,493.428772 
	C521.431580,493.776825 519.953674,494.023315 518.553223,494.498291 
	C516.749512,495.110046 515.238831,496.138245 515.320312,498.347748 
	C515.406921,500.696320 516.987366,501.888672 518.998596,502.473511 
	C524.513428,504.077271 530.051514,498.712708 528.935425,492.850708 
	C527.108826,492.085510 525.444031,493.438507 522.875061,493.428772 
z"/>
<path fill="#000000" opacity="1.000000" stroke="none" 
	d="
M544.623901,486.262970 
	C544.621826,483.328125 544.848999,481.064331 541.862671,479.546570 
	C539.910461,478.554443 539.942444,475.822083 541.917725,474.532257 
	C544.057922,473.134705 544.688843,471.473602 544.668518,469.145599 
	C544.639465,465.815491 546.727844,464.549500 549.652100,464.214600 
	C551.634888,465.569885 551.080383,467.555359 551.105896,469.295532 
	C551.139648,471.608582 551.486511,473.198608 554.148071,474.229553 
	C557.217590,475.418579 557.101990,478.677124 553.925903,479.941589 
	C551.476868,480.916626 551.124329,482.414886 551.130981,484.523468 
	C551.143005,488.351837 551.175415,492.181061 551.109985,496.008392 
	C551.067383,498.502106 551.297424,500.593872 554.357361,501.280640 
	C556.668091,501.799255 556.684753,504.023346 556.537964,505.769409 
	C556.354858,507.946960 554.357300,507.968842 552.698547,508.064362 
	C547.839844,508.344147 544.830322,505.638672 544.695496,500.704620 
	C544.568237,496.047058 544.640869,491.384033 544.623901,486.262970 
z"/>
<path fill="#000000" opacity="1.000000" stroke="none" 
	d="
M628.486572,462.590088 
	C632.509766,461.506378 634.194397,462.885162 634.176331,466.684998 
	C634.118530,478.838623 634.157349,490.992737 634.156311,503.146637 
	C634.156128,505.519928 633.714905,507.505493 630.673584,507.494751 
	C627.876770,507.484894 626.856689,505.946777 626.858215,503.376099 
	C626.865479,490.889496 626.855164,478.402863 626.872009,465.916260 
	C626.873596,464.737396 627.092590,463.587280 628.486572,462.590088 
z"/>
<path fill="#000000" opacity="1.000000" stroke="none" 
	d="
M560.723022,476.545471 
	C561.012817,475.687592 561.395447,474.866089 561.465820,474.891998 
	C566.174561,476.626923 570.501831,472.516113 575.127625,473.992065 
	C576.666748,474.483215 578.496643,475.181854 577.932983,477.400848 
	C577.449097,479.305847 576.921753,481.522003 574.188965,481.156250 
	C568.690491,480.420380 567.174377,483.877014 566.848206,488.245544 
	C566.503540,492.861603 566.589417,497.508331 566.395325,502.137787 
	C566.303406,504.330353 566.991760,507.261841 563.336792,507.171112 
	C560.029358,507.088989 560.640015,504.371216 560.630066,502.343018 
	C560.588501,493.888031 560.647766,485.432587 560.723022,476.545471 
z"/>
<path fill="#000000" opacity="1.000000" stroke="none" 
	d="
M580.041260,486.040802 
	C580.069458,482.897644 580.063660,480.245972 580.137817,477.596558 
	C580.197144,475.476746 581.207092,474.138794 583.460815,474.085327 
	C585.874084,474.028046 587.209595,475.200745 587.210144,477.664337 
	C587.212097,486.445404 587.203613,495.226501 587.164551,504.007477 
	C587.154663,506.236389 585.963379,507.280853 583.713013,507.272430 
	C581.427246,507.263885 580.311951,506.041138 580.262634,503.926208 
	C580.127380,498.130005 580.107422,492.331085 580.041260,486.040802 
z"/>
<path fill="#000000" opacity="1.000000" stroke="none" 
	d="
M582.408447,462.265869 
	C585.302124,461.902222 587.097412,462.606232 587.187256,465.496979 
	C587.244812,467.350891 587.317749,469.312073 584.990417,469.919159 
	C583.515320,470.303894 581.760498,470.398285 580.938049,468.909454 
	C579.658325,466.592743 579.379822,464.172302 582.408447,462.265869 
z"/>
</svg>